{"title":"As The Light Goes Out 2014 1080p BluRrip English Subtitles Xvid ","uid":10252827,"size":1398865745,"categoryP":"video","categoryS":"movies","magnet":"?xt=urn:btih:b6a65602b956d31ece45c364e804d7174cab322e&amp;dn=As+The+Light+Goes+Out+2014+1080p+BluRrip+English+Subtitles+Xvid+&amp;tr=udp%3A%2F%2Ftracker.openbittorrent.com%3A80&amp;tr=udp%3A%2F%2Fopen.demonii.com%3A1337&amp;tr=udp%3A%2F%2Ftracker.coppersurfer.tk%3A6969&amp;tr=udp%3A%2F%2Fexodus.desync.com%3A6969","seeders":1,"leechers":0,"uploader":".BONE.","files":2,"time":1401375280,"description":"PLOT\n\nThe firefighters of Hong Kong's Pillar Point division battle an out-of-control blaze that threatens to\nplunge the city into darkness.\n\nRuntime ..........: 1h 55mn\nSource ..........: 1080p.BluRay ROVERS Thanks m8\nFile Size ........: 1.30 GiB\nResolution .......: 1920 x 800 &lt;a href=&quot;\nhttp://www.imdb.com/title/tt3414954/&quot; rel=&quot;nofollow&quot; target=&quot;_NEW&quot;&gt;\nhttp://www.imdb.com/title/tt3414954/&lt;/a&gt;\nGenre ............: Action,Drama\nLanguage .........: Cantonese,Mandarin\nSubtitles ........: English\nComplete name : As The Light Goes Out 2014 1080p English Subtitles Xvid AC3 LKRGAs The Light Goes Out_LKRG.avi\nFormat : AVI\nFormat/Info : Audio Video Interleave\nFile size : 1.30 GiB\nDuration : 1h 55mn\nOverall bit rate : 1 614 Kbps\nWriting application : VirtualDubMod 1.5.10.2 (build 2540/release)\nWriting library : VirtualDubMod build 2540/release\nVideo\nID : 0\nFormat : MPEG-4 Visual\nFormat profile : Advanced Simple@L5\nFormat settings, BVOP : 2\nFormat settings, QPel : No\nFormat settings, GMC : No warppoints\nFormat settings, Matrix : Default (H.263)\nMuxing mode : Packed bitstream\nCodec ID : XVID\nCodec ID/Hint : XviD\nDuration : 1h 55mn\nBit rate : 1 381 Kbps\nWidth : 1 920 pixels\nHeight : 800 pixels\nDisplay aspect ratio : 2.40:1\nFrame rate : 24.000 fps\nColor space : YUV\nChroma subsampling : 4:2:0\nBit depth : 8 bits\nScan type : Progressive\nCompression mode : Lossy\nBits/(Pixel*Frame) : 0.037\nStream size : 1.11 GiB (86%)\nWriting library : XviD 1.2.1 (UTC 2008-12-04)\nAudio\nID : 1\nFormat : AC-3\nFormat/Info : Audio Coding 3\nMode extension : CM (complete main)\nFormat settings, Endianness : Big\nCodec ID : 2000\nDuration : 1h 55mn\nBit rate mode : Constant\nBit rate : 224 Kbps\nChannel(s) : 2 channels\nChannel positions : Front: L R\nSampling rate : 48.0 KHz\nBit depth : 16 bits\nCompression mode : Lossy\nStream size : 185 MiB (14%)\nAlignment : Split accross interleaves\nInterleave, duration : 42 ms (1.00 video frame)\nInterleave, preload duration : 500 ms","torrent":{"xt":"urn:btih:b6a65602b956d31ece45c364e804d7174cab322e","amp;dn":"As+The+Light+Goes+Out+2014+1080p+BluRrip+English+Subtitles+Xvid+","amp;tr":["udp%3A%2F%2Ftracker.openbittorrent.com%3A80","udp%3A%2F%2Fopen.demonii.com%3A1337","udp%3A%2F%2Ftracker.coppersurfer.tk%3A6969","udp%3A%2F%2Fexodus.desync.com%3A6969"],"infoHash":"b6a65602b956d31ece45c364e804d7174cab322e","infoHashBuffer":{"type":"Buffer","data":[182,166,86,2,185,86,211,30,206,69,195,100,232,4,215,23,76,171,50,46]},"announce":[],"urlList":[]}}